<svg width="32" height="32" viewBox="0 0 32 32" fill="none" xmlns="http://www.w3.org/2000/svg">
<path d="M29.9464 13.9601H7.00777L17.0293 3.93854C17.8302 3.13764 17.8302 1.82334 17.0293 1.02244C16.8393 0.83206 16.6137 0.681023 16.3652 0.577971C16.1168 0.474919 15.8505 0.421875 15.5815 0.421875C15.3126 0.421875 15.0463 0.474919 14.7978 0.577971C14.5494 0.681023 14.3237 0.83206 14.1337 1.02244L0.600561 14.5556C0.410186 14.7456 0.259149 14.9713 0.156097 15.2197C0.0530447 15.4681 0 15.7344 0 16.0034C0 16.2724 0.0530447 16.5387 0.156097 16.7871C0.259149 17.0355 0.410186 17.2612 0.600561 17.4512L14.1337 30.9844C14.3239 31.1745 14.5496 31.3253 14.798 31.4282C15.0464 31.5311 15.3126 31.584 15.5815 31.584C15.8504 31.584 16.1166 31.5311 16.3651 31.4282C16.6135 31.3253 16.8392 31.1745 17.0293 30.9844C17.2194 30.7942 17.3702 30.5685 17.4731 30.3201C17.576 30.0717 17.629 29.8055 17.629 29.5366C17.629 29.2677 17.576 29.0015 17.4731 28.753C17.3702 28.5046 17.2194 28.2789 17.0293 28.0888L7.00777 18.0673H29.9464C31.0759 18.0673 32 17.1431 32 16.0137C32 14.8842 31.0759 13.9601 29.9464 13.9601Z" fill="#747476"/>
</svg>
